<svg width="83" height="45" viewBox="0 0 83 45" xmlns="http://www.w3.org/2000/svg">
<g clip-path="url(#clip0_603_1297)">
<path d="M60.7549 20.0876V29.2944C60.7549 33.5286 50.8096 35.8426 41.5044 35.8426C32.1991 35.8426 22.2538 33.5286 22.2538 29.2944V20.0876C9.00985 22.3032 0 26.7343 0 31.8054C0 39.092 18.5613 45.0001 41.5044 45.0001C64.4475 45.0001 82.9595 39.092 82.9595 31.8054C82.9595 26.7343 73.9497 22.3524 60.7549 20.0876Z" fill="current"/>
<path d="M41.5044 34.6116C52.0897 34.6116 59.5241 31.8053 59.5241 29.2943V16.5427C59.5241 7.43435 52.0897 0 43.0306 0H39.9289C30.8698 0 23.4847 7.43435 23.4847 16.5427V29.2943C23.4847 31.8053 30.8698 34.6116 41.5044 34.6116Z" fill="current"/>
</g>
<defs>
<clipPath id="clip0_603_1297">
<rect width="82.9595" height="45" fill="white"/>
</clipPath>
</defs>
</svg>
