<svg width="85" height="80" viewBox="0 0 85 80" xmlns="http://www.w3.org/2000/svg">
<g clip-path="url(#clip0_603_1265)">
<path d="M1.53672 64.4067L0 71.2316L13.8305 73.6723L15.2768 67.209L1.53672 64.4067ZM3.48023 69.1977C3.02825 69.1977 2.62147 68.8361 2.62147 68.3389C2.62147 67.887 3.02825 67.4802 3.48023 67.4802C3.9774 67.4802 4.33898 67.887 4.33898 68.3389C4.33898 68.8361 3.9774 69.1977 3.48023 69.1977Z" fill="current"/>
<path d="M41.7627 73.5366H17.4463V79.9999H41.7627V73.5366Z" fill="current"/>
<path d="M34.9378 34.5763H24.0452C23.6836 34.5763 23.3672 34.8927 23.3672 35.2542V35.9774H35.661V35.2542C35.661 34.8927 35.3446 34.5763 34.9378 34.5763ZM23.3672 37.1073V42.2147C23.3672 44.7458 25.4463 46.8701 28.0226 46.8701H31.0056C33.5819 46.8701 35.661 44.7458 35.661 42.2147V37.1073H23.3672ZM23.3672 37.1073V42.2147C23.3672 44.7458 25.4463 46.8701 28.0226 46.8701H31.0056C33.5819 46.8701 35.661 44.7458 35.661 42.2147V37.1073H23.3672ZM34.9378 34.5763H24.0452C23.6836 34.5763 23.3672 34.8927 23.3672 35.2542V35.9774H35.661V35.2542C35.661 34.8927 35.3446 34.5763 34.9378 34.5763ZM34.9378 34.5763H24.0452C23.6836 34.5763 23.3672 34.8927 23.3672 35.2542V35.9774H35.661V35.2542C35.661 34.8927 35.3446 34.5763 34.9378 34.5763ZM23.3672 37.1073V42.2147C23.3672 44.7458 25.4463 46.8701 28.0226 46.8701H31.0056C33.5819 46.8701 35.661 44.7458 35.661 42.2147V37.1073H23.3672ZM23.3672 42.2147C23.3672 44.7458 25.4463 46.8701 28.0226 46.8701H31.0056C33.5819 46.8701 35.661 44.7458 35.661 42.2147V37.1073H23.3672V42.2147ZM34.9378 34.5763H24.0452C23.6836 34.5763 23.3672 34.8927 23.3672 35.2542V35.9774H35.661V35.2542C35.661 34.8927 35.3446 34.5763 34.9378 34.5763ZM41.6723 30.1469L26.1243 15.2768C26.1243 15.2768 25.8983 14.8701 25.9887 14.6893L31.4124 0H29.7401C29.3785 0 28.9265 0 28.3842 0.0451977C27.9774 0.0451977 27.5254 0.0903955 27.0734 0.135593H26.983C26.5311 0.180791 26.0339 0.271186 25.5367 0.361582C25.0395 0.451977 24.4972 0.542373 23.9096 0.677966C23.8192 0.677966 23.774 0.723164 23.6836 0.723164C22.644 1.03955 21.5593 1.40113 20.5198 1.8983C19.9322 2.16949 19.3898 2.48588 18.8474 2.84746C18.3051 3.20904 17.8079 3.57062 17.3107 4.0226C16.9039 4.33898 16.5424 4.74576 16.226 5.10734C15.9548 5.42373 15.6836 5.74011 15.5028 6.10169C15.2768 6.28249 15.1412 6.50847 15.0508 6.73446C14.5537 7.59322 14.1469 8.54237 13.8305 9.67232L1.7627 63.322L15.548 66.1243L16.3164 62.6441V29.9661C16.3164 29.6497 16.5876 29.3785 16.9039 29.3785C17.2203 29.3785 17.4463 29.6497 17.4463 29.9661V72.4068H41.7627V30.2373C41.7627 30.2373 41.6723 30.2373 41.6723 30.1469ZM36.7005 42.2147C36.7005 45.3333 34.1243 47.9096 31.0056 47.9096H28.0226C24.8587 47.9096 22.3277 45.3333 22.3277 42.2147V35.2542C22.3277 34.3051 23.096 33.4915 24.0452 33.4915H34.9378C35.9322 33.4915 36.7005 34.3051 36.7005 35.2542V42.2147ZM23.3672 42.2147C23.3672 44.7458 25.4463 46.8701 28.0226 46.8701H31.0056C33.5819 46.8701 35.661 44.7458 35.661 42.2147V37.1073H23.3672V42.2147ZM34.9378 34.5763H24.0452C23.6836 34.5763 23.3672 34.8927 23.3672 35.2542V35.9774H35.661V35.2542C35.661 34.8927 35.3446 34.5763 34.9378 34.5763ZM34.9378 34.5763H24.0452C23.6836 34.5763 23.3672 34.8927 23.3672 35.2542V35.9774H35.661V35.2542C35.661 34.8927 35.3446 34.5763 34.9378 34.5763ZM23.3672 37.1073V42.2147C23.3672 44.7458 25.4463 46.8701 28.0226 46.8701H31.0056C33.5819 46.8701 35.661 44.7458 35.661 42.2147V37.1073H23.3672ZM23.3672 37.1073V42.2147C23.3672 44.7458 25.4463 46.8701 28.0226 46.8701H31.0056C33.5819 46.8701 35.661 44.7458 35.661 42.2147V37.1073H23.3672ZM34.9378 34.5763H24.0452C23.6836 34.5763 23.3672 34.8927 23.3672 35.2542V35.9774H35.661V35.2542C35.661 34.8927 35.3446 34.5763 34.9378 34.5763ZM34.9378 34.5763H24.0452C23.6836 34.5763 23.3672 34.8927 23.3672 35.2542V35.9774H35.661V35.2542C35.661 34.8927 35.3446 34.5763 34.9378 34.5763ZM23.3672 37.1073V42.2147C23.3672 44.7458 25.4463 46.8701 28.0226 46.8701H31.0056C33.5819 46.8701 35.661 44.7458 35.661 42.2147V37.1073H23.3672ZM23.3672 37.1073V42.2147C23.3672 44.7458 25.4463 46.8701 28.0226 46.8701H31.0056C33.5819 46.8701 35.661 44.7458 35.661 42.2147V37.1073H23.3672ZM34.9378 34.5763H24.0452C23.6836 34.5763 23.3672 34.8927 23.3672 35.2542V35.9774H35.661V35.2542C35.661 34.8927 35.3446 34.5763 34.9378 34.5763Z" fill="current"/>
<path d="M41.5369 28.4746L37.4691 13.1525L37.1528 11.9322L33.9437 0H32.5878C32.5878 0 32.5426 0.135593 32.5426 0.180791L27.1641 14.7345L41.5369 28.4746Z" fill="current"/>
<path d="M60.5649 34.5763H49.6722C49.2655 34.5763 48.9491 34.8927 48.9491 35.2542V35.9774H61.2429V35.2542C61.2429 34.8927 60.9265 34.5763 60.5649 34.5763ZM48.9491 37.1073V42.2147C48.9491 44.7458 51.0282 46.8701 53.6044 46.8701H56.5875C59.1638 46.8701 61.2429 44.7458 61.2429 42.2147V37.1073H48.9491ZM48.9491 42.2147C48.9491 44.7458 51.0282 46.8701 53.6044 46.8701H56.5875C59.1638 46.8701 61.2429 44.7458 61.2429 42.2147V37.1073H48.9491V42.2147ZM60.5649 34.5763H49.6722C49.2655 34.5763 48.9491 34.8927 48.9491 35.2542V35.9774H61.2429V35.2542C61.2429 34.8927 60.9265 34.5763 60.5649 34.5763ZM70.9604 9.67232C70.8248 9.22034 70.6892 8.76836 70.5084 8.31638C70.3728 7.9548 70.2372 7.59322 70.0112 7.27684C69.966 7.09604 69.8756 6.91525 69.74 6.73446C69.514 6.28249 69.2429 5.87571 68.9265 5.51412C68.7909 5.28814 68.6101 5.10734 68.4293 4.92655C68.2485 4.65537 68.0225 4.42938 67.7513 4.20339C67.3897 3.84181 66.983 3.52542 66.5762 3.20904C66.079 2.84746 65.4914 2.48588 64.9491 2.21469C64.2711 1.85311 63.5931 1.58192 62.9152 1.31073C62.3276 1.08475 61.6948 0.903955 61.1073 0.723164C61.0169 0.723164 60.9717 0.677966 60.8813 0.677966C59.5705 0.361582 58.305 0.180791 57.2203 0.0903955H57.1751C56.4519 0 55.8191 0 55.322 0H53.4236L58.8474 14.6893C58.8474 14.6893 58.8474 15.1412 58.7118 15.2768L43.1638 30.1469C43.1638 30.1469 42.983 30.2825 42.8926 30.2825V72.4068H67.2994V29.9661C67.2994 29.6497 67.5705 29.3785 67.8869 29.3785C68.2033 29.3785 68.4293 29.6497 68.4293 29.9661V62.5537L69.1525 65.7627L83.0282 63.4124L70.9604 9.67232ZM62.2824 42.2147C62.2824 45.3333 59.7513 47.9096 56.5875 47.9096H53.6044C50.4406 47.9096 47.9095 45.3333 47.9095 42.2147V35.2542C47.9095 34.3051 48.6779 33.4915 49.6722 33.4915H60.5649C61.514 33.4915 62.2824 34.3051 62.2824 35.2542V42.2147ZM48.9491 42.2147C48.9491 44.7458 51.0282 46.8701 53.6044 46.8701H56.5875C59.1638 46.8701 61.2429 44.7458 61.2429 42.2147V37.1073H48.9491V42.2147ZM60.5649 34.5763H49.6722C49.2655 34.5763 48.9491 34.8927 48.9491 35.2542V35.9774H61.2429V35.2542C61.2429 34.8927 60.9265 34.5763 60.5649 34.5763Z" fill="current"/>
<path d="M67.2994 73.5366H42.8926V79.9999H67.2994V73.5366Z" fill="current"/>
<path d="M52.2487 0.180791C52.2487 0.180791 52.2035 0.0451977 52.2035 0H50.712V0.225989V0.271186L47.6386 11.9322L47.3222 13.1073L43.2544 28.5198L57.6725 14.7345L52.2487 0.180791Z" fill="current"/>
<path d="M83.2995 64.4971H83.2543L69.4238 66.8925L70.9606 73.6722L84.7911 71.2315L83.2995 64.4971ZM81.5368 69.1976C81.0397 69.1976 80.6781 68.8361 80.6781 68.3389C80.6781 67.8869 81.0397 67.4801 81.5368 67.4801C82.034 67.4801 82.3956 67.8869 82.3956 68.3389C82.3956 68.8361 82.034 69.1976 81.5368 69.1976Z" fill="current"/>
</g>
<defs>
<clipPath id="clip0_603_1265">
<rect width="84.791" height="80" fill="white"/>
</clipPath>
</defs>
</svg>
