<svg width="50" height="80" viewBox="0 0 50 80" xmlns="http://www.w3.org/2000/svg">
<g clip-path="url(#clip0_603_1224)">
<path d="M19.2542 13.3785C20.7458 14.7796 22.7345 15.6836 24.904 15.6836C27.0735 15.6836 29.1525 14.7796 30.6441 13.2881C29.3333 15.548 27.2542 16.9943 24.904 16.9943C22.5537 16.9943 20.565 15.5932 19.2542 13.3785Z" fill="current"/>
<path d="M49.8531 27.9774V80H0V27.9774C0 27.9774 1.62712 26.8927 3.66102 24.6328C6.68927 20.7006 10.6667 13.2429 12.2486 0.40678C12.2486 0.271186 12.2938 0.135593 12.2938 0H16.452V6.55367C16.452 6.91525 16.452 7.23164 16.5424 7.54802C16.5424 13.3785 20.2938 18.0339 24.904 18.0339C29.5141 18.0339 32.904 13.8305 33.1751 8.45198C33.1751 8.45198 33.2203 8.40678 33.2203 8.36158C33.3559 7.77401 33.4011 7.18644 33.4011 6.55367V0H37.5593V0.40678C39.1412 13.2429 43.1638 20.7006 46.1921 24.6328C48.226 26.8927 49.8531 27.9774 49.8531 27.9774Z" fill="current"/>
</g>
<defs>
<clipPath id="clip0_603_1224">
<rect width="49.8531" height="80" fill="white"/>
</clipPath>
</defs>
</svg>
