<svg width="85" height="80" viewBox="0 0 85 80" xmlns="http://www.w3.org/2000/svg">
<g clip-path="url(#clip0_603_1243)">
<path d="M71.0809 9.68877C69.4963 3.66726 64.3803 1.35826 60.2151 0.498047L58.4493 2.5354L55.9593 5.47824L53.9672 7.78724L42.2411 21.5054L31.013 8.42108L28.8851 5.88571L25.9423 2.5354L24.3124 0.588596C20.2377 1.53936 15.348 3.89363 13.854 9.68877L0 71.3526L13.854 73.7974L16.3441 62.7505V30.017C16.3441 29.7001 16.6157 29.4284 16.9327 29.4284C17.2496 29.4284 17.4759 29.7001 17.4759 30.017V75.2462H67.4137V30.017C67.4137 29.7001 67.6853 29.4284 68.0023 29.4284C68.3192 29.4284 68.5456 29.7001 68.5456 30.017V62.6599L71.0809 73.7974L84.9349 71.3526L71.0809 9.68877Z" fill="current"/>
<path d="M1.16811 73.0747L0.533188 76.6865L11.0566 78.5364L11.6915 74.9246L1.16811 73.0747Z" fill="current"/>
<path d="M83.9735 73.063L73.4501 74.9128L74.085 78.5247L84.6084 76.6748L83.9735 73.063Z" fill="current"/>
<path d="M63.2032 76.3779H21.7318V79.9999H63.2032V76.3779Z" fill="current"/>
<path d="M29.1568 4.52745L30.9225 6.5648L42.2411 19.7849L47.176 14.0351H47.2213L49.7566 11.0017L54.0577 5.97623L55.6876 4.02943L57.5891 1.81098L58.9021 0.271647C57.4986 0.090549 56.2762 0 55.4612 0L55.1443 0.362196L54.2841 1.31296L50.9338 5.29711L42.1505 15.5744C42.1505 15.5744 42.0147 15.5744 41.9694 15.5291L33.9559 6.15733L30.6961 2.309L29.6548 1.13186L28.704 0.0452745C27.8438 0.0452745 26.8025 0.135823 25.6254 0.362196L26.8478 1.7657L29.202 4.52745H29.1568Z" fill="current"/>
</g>
<defs>
<clipPath id="clip0_603_1243">
<rect width="84.9349" height="80" fill="white"/>
</clipPath>
</defs>
</svg>
