<svg width="85" height="80" viewBox="0 0 85 80" xmlns="http://www.w3.org/2000/svg">
<g clip-path="url(#clip0_603_1249)">
<path d="M1.53672 64.4067L15.2768 67.209L13.8305 73.6723L0 71.2316L1.53672 64.4067Z" fill="current"/>
<path d="M84.7909 71.2315L70.9604 73.6722L69.4237 66.8925L83.2994 64.4971L84.7909 71.2315Z" fill="current"/>
<path d="M37.017 3.79669L33.9435 7.93327e-05H31.9548L32.7232 14.147L41.5367 9.76279L37.017 3.79669V3.79669ZM32.452 15.6385C32.452 15.6385 32.2712 15.6837 32.1808 15.6837C32.0904 15.6837 31.9548 15.6385 31.8644 15.5933C31.7288 15.5029 31.5932 15.3221 31.5932 15.1413L30.7345 7.93327e-05H29.7401C26.7571 -0.0451184 16.226 0.58765 13.8305 9.6724L1.76273 63.3221L15.548 66.1244L16.3164 62.6441V29.9662C16.3164 29.6498 16.5876 29.3786 16.904 29.3786C17.2204 29.3786 17.4463 29.6498 17.4463 29.9662V80.0001H41.7627V10.9831L32.452 15.6385ZM70.9605 9.6724C68.565 0.58765 58.0339 7.93327e-05 55.0509 7.93327e-05H54.0565L53.1977 15.1413C53.1977 15.1413 53.0622 15.5029 52.8814 15.5933C52.791 15.6385 52.7006 15.6837 52.6102 15.6837C52.5198 15.6837 52.4294 15.6837 52.339 15.6385L42.8927 10.8927V80.0001H67.2994V29.9662C67.2994 29.6498 67.5706 29.3786 67.887 29.3786C68.2034 29.3786 68.4294 29.6498 68.4294 29.9662V62.5538L69.1525 65.7628L83.0283 63.4125L70.9605 9.6724V9.6724ZM46.7797 73.3108C46.3277 73.3108 45.9661 72.9492 45.9661 72.4973C45.9661 72.0453 46.3277 71.6837 46.7797 71.6837C47.2316 71.6837 47.6384 72.0453 47.6384 72.4973C47.6384 72.9492 47.2316 73.3108 46.7797 73.3108ZM46.7797 66.26C46.3277 66.26 45.9661 65.8984 45.9661 65.4464C45.9661 64.9944 46.3277 64.5877 46.7797 64.5877C47.2316 64.5877 47.6384 64.9944 47.6384 65.4464C47.6384 65.8984 47.2316 66.26 46.7797 66.26ZM46.7797 59.2091C46.3277 59.2091 45.9661 58.8023 45.9661 58.3504C45.9661 57.8984 46.3277 57.5368 46.7797 57.5368C47.2316 57.5368 47.6384 57.8984 47.6384 58.3504C47.6384 58.8023 47.2316 59.2091 46.7797 59.2091ZM46.7797 52.1131C46.3277 52.1131 45.9661 51.7515 45.9661 51.2995C45.9661 50.8475 46.3277 50.486 46.7797 50.486C47.2316 50.486 47.6384 50.8475 47.6384 51.2995C47.6384 51.7515 47.2316 52.1131 46.7797 52.1131ZM46.7797 45.0622C46.3277 45.0622 45.9661 44.7006 45.9661 44.2487C45.9661 43.7515 46.3277 43.3899 46.7797 43.3899C47.2316 43.3899 47.6384 43.7515 47.6384 44.2487C47.6384 44.7006 47.2316 45.0622 46.7797 45.0622ZM46.7797 38.0114C46.3277 38.0114 45.9661 37.6046 45.9661 37.1526C45.9661 36.7006 46.3277 36.3391 46.7797 36.3391C47.2316 36.3391 47.6384 36.7006 47.6384 37.1526C47.6384 37.6046 47.2316 38.0114 46.7797 38.0114ZM46.7797 30.9153C46.3277 30.9153 45.9661 30.5538 45.9661 30.1018C45.9661 29.6498 46.3277 29.243 46.7797 29.243C47.2316 29.243 47.6384 29.6498 47.6384 30.1018C47.6384 30.5538 47.2316 30.9153 46.7797 30.9153ZM46.7797 23.8645C46.3277 23.8645 45.9661 23.5029 45.9661 23.0057C45.9661 22.5538 46.3277 22.1922 46.7797 22.1922C47.2316 22.1922 47.6384 22.5538 47.6384 23.0057C47.6384 23.5029 47.2316 23.8645 46.7797 23.8645ZM50.8475 7.93327e-05L47.774 3.75149L43.2542 9.76279L52.0678 14.147L52.8362 0.0904748V7.93327e-05H50.8475Z" fill="current"/>
</g>
<defs>
<clipPath id="clip0_603_1249">
<rect width="84.791" height="80" fill="white"/>
</clipPath>
</defs>
</svg>
