<svg width="79" height="85" viewBox="0 0 79 85" xmlns="http://www.w3.org/2000/svg">
<g clip-path="url(#clip0_603_1258)">
<path d="M20.3343 41.1851C14.6519 39.4475 0 39.1657 0 39.1657C0 18.1271 16.6243 0.939227 37.4282 0C20.0525 10.989 20.1464 36.3011 20.3343 41.1851Z" fill="current"/>
<path d="M54.0995 41.8425V41.9364H22.2127V41.8425C22.2127 41.5607 20.1464 12.3978 39.1657 1.08008C55.9309 12.3508 54.1464 41.5607 54.0995 41.8425Z" fill="current"/>
<path d="M55.9779 41.7956C56.1657 38.884 57.2928 11.6464 40.8563 0C61.7541 0.845304 78.3785 18.0801 78.3785 39.1657L55.9779 41.7956V41.7956Z" fill="current"/>
<path d="M40.8564 32.9199H37.5691V68.3757H40.8564V32.9199Z" fill="current"/>
<path d="M33.9061 85C29.6796 85 26.2983 81.5718 26.2983 77.3922V73.4945C26.2983 72.1795 27.3315 71.1464 28.6464 71.1464C29.9613 71.1464 30.9945 72.1795 30.9945 73.4945V77.3922C30.9945 78.9889 32.3094 80.3038 33.9061 80.3038C35.5028 80.3038 36.8177 78.9889 36.8177 77.3922V59.7348C36.8177 58.4199 37.8508 57.3867 39.1657 57.3867C40.4807 57.3867 41.5138 58.4199 41.5138 59.7348V77.3922C41.5138 81.6188 38.0856 85 33.9061 85Z" fill="current"/>
</g>
<defs>
<clipPath id="clip0_603_1258">
<rect width="78.3785" height="85" fill="white"/>
</clipPath>
</defs>
</svg>
