<svg width="84" height="80" viewBox="0 0 84 80" xmlns="http://www.w3.org/2000/svg">
<g clip-path="url(#clip0_603_1218)">
<path d="M0.0451983 68.8813C-0.225988 70.1469 0.587571 71.4124 1.85311 71.6384L11.1638 73.2655C12.3842 73.4915 13.5141 72.7231 13.7853 71.5028L14.7345 67.1638L1.08475 64.4067L0.0451983 68.8813Z" fill="current"/>
<path d="M27.9322 0.0451977C27.5254 0.0451977 27.0734 0.0903955 26.6215 0.135593H26.5311C26.0791 0.180791 25.5819 0.271186 25.0847 0.361582C24.5876 0.451977 24.0452 0.542373 23.4576 0.677966C23.3672 0.677966 23.322 0.723164 23.2316 0.723164C22.1921 1.03955 21.1073 1.40113 20.0678 1.89831C19.4802 2.16949 18.9378 2.48588 18.3955 2.84746C17.8531 3.20904 17.3559 3.57062 16.8588 4.0226C16.452 4.33898 16.0904 4.74576 15.774 5.10734C15.5028 5.42373 15.2316 5.74011 15.0508 6.10169C14.8249 6.28249 14.6893 6.50847 14.5989 6.73446C14.1017 7.59322 13.6949 8.54237 13.3785 9.67232L1.31073 63.322L15.096 66.1243L15.8644 62.6441V29.9661C15.8644 29.6497 16.1356 29.3785 16.452 29.3785C16.7684 29.3785 16.9943 29.6497 16.9943 29.9661V74.7571C16.9943 77.6497 19.3446 80 22.1921 80H37.5593C39.6384 80 41.3107 78.2825 41.3107 76.2034V42.4407L29.1977 0C28.8814 0 28.4294 0 27.9322 0.0451977Z" fill="current"/>
<path d="M42.4407 38.2825L53.2881 0H50.2599L50.2147 0.225989V0.271186L47.1412 11.9322L46.8248 13.1073L42.4859 29.5593L42.4407 29.7401L41.9435 31.548L41.3107 29.3333L37.0169 13.1525L36.7005 11.9322L33.4915 0H30.4633L41.3107 38.1017V37.9209L41.8983 40L42.4407 38.1017V38.2825Z" fill="current"/>
<path d="M70.5085 9.67232C70.3729 9.22034 70.2373 8.76836 70.0565 8.31638C69.9209 7.9548 69.7853 7.59322 69.5593 7.27684C69.5141 7.09605 69.4237 6.91525 69.2881 6.73446C69.0621 6.28249 68.791 5.87571 68.4746 5.51412C68.339 5.28814 68.1582 5.10734 67.9774 4.92655C67.7966 4.65537 67.5706 4.42938 67.2994 4.20339C66.9378 3.84181 66.5311 3.52542 66.1243 3.20904C65.6271 2.84746 65.0395 2.48588 64.4972 2.21469C63.8192 1.85311 63.1412 1.58192 62.4633 1.31073C61.8757 1.08475 61.2429 0.903955 60.6554 0.723164C60.565 0.723164 60.5198 0.677966 60.4294 0.677966C59.1186 0.361582 57.8531 0.180791 56.7684 0.0903955H56.7232C56 0 55.3672 0 54.8701 0H54.4633L42.4407 42.6215V76.2034C42.4407 78.2825 44.113 80 46.1921 80H61.6497C64.4972 80 66.8475 77.6497 66.8475 74.7571V29.9661C66.8475 29.6497 67.1186 29.3785 67.435 29.3785C67.7514 29.3785 67.9774 29.6497 67.9774 29.9661V62.5537L68.7006 65.7627L82.5763 63.4124L70.5085 9.67232ZM45.4237 62.1017C44.9717 62.1017 44.565 61.6949 44.565 61.1977C44.565 60.7458 44.9717 60.339 45.4237 60.339C45.9209 60.339 46.2825 60.7458 46.2825 61.1977C46.2825 61.6949 45.9209 62.1017 45.4237 62.1017ZM45.4237 54.0113C44.9717 54.0113 44.565 53.6497 44.565 53.1525C44.565 52.7006 44.9717 52.2938 45.4237 52.2938C45.9209 52.2938 46.2825 52.7006 46.2825 53.1525C46.2825 53.6497 45.9209 54.0113 45.4237 54.0113Z" fill="current"/>
<path d="M83.7966 68.8813L82.8022 64.4519L68.9717 66.8474L70.0113 71.5027C70.2825 72.6779 71.4124 73.4462 72.6328 73.2655L81.9887 71.6383C83.2542 71.4124 84.113 70.1468 83.8418 68.8813H83.7966Z" fill="current"/>
</g>
<defs>
<clipPath id="clip0_603_1218">
<rect width="83.8418" height="80" fill="white"/>
</clipPath>
</defs>
</svg>
