<svg width="83" height="85" viewBox="0 0 83 85" xmlns="http://www.w3.org/2000/svg">
<path d="M40.8026 16.692V43.2755L30.8669 22.3885L34.7087 21.417C34.7087 21.417 35.062 21.1962 35.1061 20.9754C35.1503 20.7546 35.062 20.5338 34.8853 20.4455L29.6304 16.427L31.9267 0.0883174V0H33.1631L40.8026 16.692Z" fill="current"/>
<path d="M29.5863 22.256C29.5863 22.256 29.498 21.9469 29.5863 21.7702C29.5863 21.6378 29.763 21.5495 29.9396 21.5053L33.2957 20.6221L28.7032 17.1336C28.7032 17.1336 28.4382 16.7803 28.4824 16.6037L30.8669 0H29.0564C26.9368 0 20.9312 0.35327 16.9128 3.93013C15.4114 5.29905 14.1308 7.06539 13.5126 9.44996L1.72219 61.8664L0 69.5941L13.5126 71.9787L15.1906 64.6042L15.9413 61.204V29.2772C15.9413 28.9681 16.2062 28.7032 16.5154 28.7032C16.8245 28.7032 17.0453 28.9681 17.0453 29.2772V68.2694L24.0223 59.6143C24.0223 59.6143 24.5522 59.3493 24.773 59.5259C25.038 59.7467 25.038 60.0558 24.8614 60.3208L17.0453 69.9916V85H40.8026V45.9251L29.5863 22.256ZM3.79765 65.5757C3.40022 65.5757 3.09111 65.2666 3.09111 64.9133C3.09111 64.56 3.40022 64.2509 3.79765 64.2509C4.15092 64.2509 4.46003 64.56 4.46003 64.9133C4.46003 65.2666 4.15092 65.5757 3.79765 65.5757Z" fill="current"/>
<path d="M51.9749 22.3885L41.9067 43.4963V16.692L49.5462 0H50.871V0.0883174L53.2114 16.427L47.9565 20.4455C47.9565 20.4455 47.6915 20.7546 47.7357 20.9754C47.7798 21.1962 47.9123 21.3287 48.1331 21.417L51.9749 22.3885Z" fill="current"/>
<path d="M81.1197 61.9547L69.3293 9.44996C67.3863 2.11962 60.056 0.441587 55.905 0.0883174H55.8609C55.4635 0.0883174 55.066 0.0441587 54.7569 0.0441587C54.4478 0 54.1829 0 53.9621 0H51.9749L54.3595 16.6037C54.3595 16.6037 54.3153 17.0011 54.1387 17.1336L49.502 20.6221L52.9023 21.5053C52.9023 21.5053 53.1672 21.6378 53.2555 21.7702C53.3438 21.9469 53.3438 22.1235 53.2555 22.256L41.9067 46.1017V85H65.7524V69.9474L57.9805 60.3208C57.8039 60.0558 57.848 59.7467 58.0688 59.5259C58.3338 59.3493 58.687 59.3935 58.8637 59.6143L65.7524 68.1369V29.2772C65.7524 28.9681 66.0174 28.7032 66.3265 28.7032C66.6356 28.7032 66.8564 28.9681 66.8564 29.2772V61.1157L67.5629 64.2509L69.3293 71.9787L82.8419 69.5941L81.1197 61.9547ZM79.0442 65.5757C78.6468 65.5757 78.3818 65.2666 78.3818 64.9133C78.3818 64.56 78.6468 64.2509 79.0442 64.2509C79.3975 64.2509 79.7066 64.56 79.7066 64.9133C79.7066 65.2666 79.3975 65.5757 79.0442 65.5757Z" fill="current"/>
</svg>
