<svg width="85" height="80" viewBox="0 0 85 80" xmlns="http://www.w3.org/2000/svg">
<g clip-path="url(#clip0_603_1227)">
<path d="M67.2994 27.9774V80H17.4463V27.9774C17.4463 27.9774 19.0734 26.8927 21.1525 24.6328C24.1356 20.7006 28.1582 13.2429 29.7401 0.40678V0H33.8983V6.55367C33.8983 11.5706 37.6949 15.6836 42.3955 15.6836C47.096 15.6836 50.8475 11.5706 50.8475 6.55367V0H55.0508V0.40678C56.6328 13.2429 60.6554 20.7006 63.6384 24.6328C65.7175 26.8927 67.2994 27.9774 67.2994 27.9774Z" fill="current"/>
<path d="M31.2768 14.6441L27.3446 20.7457L25.4915 22.2825L17.4463 57.8531V30.1017C17.4463 29.7853 17.2203 29.5141 16.904 29.5141C16.5876 29.5141 16.3164 29.7853 16.3164 30.1017V62.7796L13.8305 73.8079L0 71.3672L13.8305 9.80789C16.226 0.723148 26.7571 0.0903796 29.7401 0.135577H30.5085L31.2768 14.6441V14.6441Z" fill="current"/>
<path d="M84.791 71.3672L70.9605 73.8079L68.4294 62.6892V30.1017C68.4294 29.7853 68.2034 29.5141 67.887 29.5141C67.5706 29.5141 67.2994 29.7853 67.2994 30.1017V57.6723L59.2542 22.2825L57.4463 20.7457L53.5141 14.6441L54.2825 0.135577H55.0509C58.0339 0.0903796 68.565 0.723148 70.9605 9.80789L84.791 71.3672V71.3672Z" fill="current"/>
</g>
<defs>
<clipPath id="clip0_603_1227">
<rect width="84.791" height="80" fill="white"/>
</clipPath>
</defs>
</svg>
