<svg width="53" height="95" viewBox="0 0 53 95" xmlns="http://www.w3.org/2000/svg">
<g clip-path="url(#clip0_603_1300)">
<path d="M30.6144 37.583C30.6144 37.583 30.8527 37.583 30.9718 37.583C31.0313 37.583 39.7273 41.2757 46.1599 43.003C48.0658 38.2977 50.2696 33.5328 51.4013 28.5892C53.5455 19.2381 50.8056 9.05317 41.8715 3.51399C36.6897 0.297685 29.8997 -0.833976 23.8244 0.595491C5.95611 4.70521 -6.1348 28.4701 3.2163 43.4795C6.49216 48.7804 12.0313 52.3541 18.1066 54.9748H18.1661C18.1661 54.9748 18.4044 54.9748 18.5235 55.0344C18.6426 55.0344 32.2821 60.2757 41.2163 62.2413C41.3354 62.2413 41.4545 62.3008 41.5737 62.3008C41.6332 62.3008 41.6928 62.3008 41.7523 62.3604C42.348 62.4795 43.0031 62.4795 43.5987 62.2413C44.6708 61.7648 45.1473 60.6331 45.5047 59.6801C46.7555 55.9873 47.5893 52.235 47.9467 48.4231C48.0063 47.351 48.0658 46.1598 47.2915 45.3259C46.9342 44.909 46.3981 44.6707 45.8621 44.5516C45.8025 44.5516 45.6834 44.492 45.5643 44.4325C39.1317 42.6456 30.7335 39.1315 30.3762 38.9529C30.257 38.8933 30.1975 38.8337 30.1379 38.7742C29.721 38.5955 29.3041 38.4764 28.8871 38.2381C25.7304 36.63 22.4545 34.4858 20.2508 31.8055C18.4044 29.6613 17.2132 26.862 17.511 24.1221C18.7618 12.9842 37.1066 14.9497 34.0094 27.9341C33.2351 31.1504 31.9843 34.3667 30.6144 37.583Z" fill="current"/>
<path d="M21.0251 58.0125C21.0251 58.0125 20.8464 58.4889 20.7273 58.7272C17.7492 66.351 13.7586 75.1065 13.9969 83.3855C13.6395 86.8996 13.3417 90.4137 12.9843 93.8683C12.8652 95.4168 16.558 94.7617 16.6771 93.4513C16.9749 90.1159 17.2727 86.7209 17.6301 83.3855H21.6803C21.0846 86.7209 20.5486 90.0563 20.3103 93.3918C20.2508 94.1065 21.3229 94.0469 21.7994 93.9278C22.2759 93.8683 23.884 93.5109 23.884 92.8557C24.1223 89.6394 24.5987 86.5422 25.1944 83.3855H27.8746C27.3981 87.0783 27.1003 90.7711 27.279 94.5234C27.3386 95.4764 30.9718 94.8212 30.9122 93.5109C30.7931 90.1159 30.9718 86.7805 31.3887 83.3855H34.0094C34.2477 87.0783 34.605 90.7711 35.3197 94.4043C35.4984 95.3573 39.1912 94.4639 38.953 93.3918C38.0596 88.5673 37.5235 83.7429 37.464 78.7993C37.6426 75.0469 38.7147 69.3291 40.0251 63.8494C33.7116 62.42 25.4922 59.561 21.0251 58.0125Z" fill="current"/>
</g>
<defs>
<clipPath id="clip0_603_1300">
<rect width="52.116" height="95" fill="white"/>
</clipPath>
</defs>
</svg>
