<svg width="79" height="80" viewBox="0 0 79 80" xmlns="http://www.w3.org/2000/svg">
<g clip-path="url(#clip0_603_1275)">
<path d="M65.1429 11.8944C65.1429 11.8944 65.0159 11.5558 64.889 11.3865C64.6773 10.9632 64.4233 10.5822 64.127 10.2436C64.0001 10.032 63.8307 9.86266 63.6614 9.69335C63.4921 9.43938 63.2805 9.22774 63.0265 9.0161C62.6879 8.67747 62.3069 8.38118 61.926 8.08488C61.4604 7.74626 60.9101 7.40763 60.4022 7.15366C59.7673 6.81504 59.1323 6.56107 58.4974 6.3071C57.9471 6.09546 57.3546 5.92615 56.8043 5.75684C56.7196 5.75684 56.6773 5.71451 56.5927 5.71451C55.3651 5.41821 54.18 5.2489 53.1641 5.16425H53.1218C52.4445 5.07959 51.8519 5.07959 51.3863 5.07959H47.0265H39.7461V12.8256H65.5662C65.4392 12.5293 65.3546 12.1907 65.1429 11.9367V11.8944Z" fill="current"/>
<path d="M62.6032 48.127H39.7461V58.1587H62.6032V48.127Z" fill="current"/>
<path d="M39.7461 77.9261C39.7461 79.0689 40.6773 80.0001 41.8202 80.0001H60.5292C61.672 80.0001 62.6032 79.0689 62.6032 77.9261V70.8149H39.7461V77.9261Z" fill="current"/>
<path d="M62.6032 59.4707H39.7461V69.5024H62.6032V59.4707Z" fill="current"/>
<path d="M62.6032 36.7832H39.7461V46.815H62.6032V36.7832Z" fill="current"/>
<path d="M47.0265 0H41.8202C40.6773 0 39.7461 0.931217 39.7461 2.07407V3.97884H47.0265V0Z" fill="current"/>
<path d="M38.688 59.4707H15.9155V69.5024H38.688V59.4707Z" fill="current"/>
<path d="M38.688 48.127H15.9155V58.1587H38.688V48.127Z" fill="current"/>
<path d="M31.365 5.07944H27.4285C27.0899 5.07944 26.6666 5.07944 26.1586 5.12177C25.7777 5.12177 25.3544 5.16409 24.9311 5.20642H24.8465C24.4232 5.24875 23.9576 5.33341 23.492 5.41806C23.0264 5.50272 22.5184 5.58737 21.9682 5.71436C21.8835 5.71436 21.8412 5.75669 21.7565 5.75669C20.783 6.01065 19.7671 6.34928 18.7936 6.85722C18.2433 7.11118 17.7354 7.40748 17.2274 7.7461C16.9735 7.91542 16.7195 8.08473 16.4655 8.25404C16.2116 8.46568 15.9999 8.63499 15.7883 8.84663C15.365 9.14293 15.0687 9.48155 14.7724 9.86251C14.5184 10.1588 14.2645 10.4551 14.0952 10.7937C13.8835 10.963 13.7565 11.1747 13.6719 11.3863C13.4179 11.8096 13.2063 12.2752 12.9946 12.7831H38.6878V5.03711H31.365V5.07944Z" fill="current"/>
<path d="M38.688 2.07407C38.688 0.931217 37.7568 0 36.6139 0H31.3652V3.97884H38.688V2.07407Z" fill="current"/>
<path d="M38.688 36.7832H15.9155V46.815H38.688V36.7832Z" fill="current"/>
<path d="M15.9155 77.9261C15.9155 79.0689 16.8467 80.0001 17.9896 80.0001H36.6139C37.7568 80.0001 38.688 79.0689 38.688 77.9261V70.8149H15.9155V77.9261Z" fill="current"/>
<path d="M63.6611 48.8042L73.4389 47.111L70.7299 34.9629L63.6611 36.1904V48.8042Z" fill="current"/>
<path d="M63.6611 62.307L76.3595 60.0636L73.6505 48.1694L63.6611 49.9049V62.307Z" fill="current"/>
<path d="M78.5183 69.6718L77.3331 64.4655L76.5712 61.1216L63.6611 63.365V63.6613L64.3384 66.6666L64.9733 69.5025L65.2696 70.8147L65.6082 72.1692C65.8199 73.2274 66.8781 73.9047 67.9786 73.7353L76.8252 72.1692C78.0103 71.9576 78.7722 70.8147 78.5183 69.6718Z" fill="current"/>
<path d="M5.12158 47.111L14.857 48.8042V36.1904L7.83058 34.9629L5.12158 47.111Z" fill="current"/>
<path d="M2.20117 60.0635L14.8573 62.2645V49.9047L4.86784 48.127L2.20117 60.0635Z" fill="current"/>
<path d="M1.22729 64.3808L0.0421021 69.6718C-0.211866 70.8147 0.550039 71.9576 1.6929 72.1692L10.5818 73.7353C11.6823 73.9047 12.7405 73.2274 12.9522 72.1269L13.2908 70.8147L13.5871 69.5025L14.1373 67.0052L14.8569 63.7459V63.365L1.94686 61.1216L1.22729 64.3808Z" fill="current"/>
<path d="M12.5289 14.1375L9.98923 25.4391L9.77759 26.328L8.08447 33.9047L14.857 35.0899V33.1428C14.857 32.8465 15.1109 32.5926 15.4072 32.5926C15.7035 32.5926 15.9152 32.8465 15.9152 33.1428V35.4709H38.6877V25.4391V14.0952H12.5289V14.1375Z" fill="current"/>
<path d="M63.6614 35.1323L70.4762 33.9047L68.5715 25.4391L66.0318 14.1375L39.7461 14.0952V35.4709H62.6032V33.1428C62.6032 32.8465 62.8572 32.5926 63.1535 32.5926C63.4498 32.5926 63.6614 32.8465 63.6614 33.1428V35.1323ZM57.3122 29.6719C57.3122 29.9682 57.0583 30.1799 56.8043 30.1799C56.5503 30.1799 56.2964 29.9259 56.2964 29.6719V19.8942C56.2964 19.5979 56.5503 19.3862 56.8043 19.3862C57.0583 19.3862 57.3122 19.6402 57.3122 19.8942V29.6719Z" fill="current"/>
</g>
<defs>
<clipPath id="clip0_603_1275">
<rect width="78.5608" height="80" fill="white"/>
</clipPath>
</defs>
</svg>
