<svg width="91" height="80" viewBox="0 0 91 80" xmlns="http://www.w3.org/2000/svg">
<g clip-path="url(#clip0_603_1232)">
<path d="M72.8588 6.46328C65.8531 0.858757 58.9831 0.0903955 57.8079 0.0451977C57.6723 0 57.6271 0 57.6271 0H53.6497V6.55367C53.6497 11.5706 49.8983 15.6836 45.1977 15.6836C40.4972 15.6836 36.7006 11.5706 36.7006 6.55367V0H32.5424C31.548 0.0903955 24.6328 0.768361 17.5367 6.46328L0 21.4237L14.9153 38.9153L20.2034 34.3955V80H70.1017V34.3503L75.435 38.9153L90.3503 21.4237L72.8588 6.46328ZM51.5706 24.226C51.2542 24.226 50.983 23.9548 50.983 23.6384C50.983 23.322 51.2542 23.096 51.5706 23.096H62.5989C62.9153 23.096 63.1864 23.322 63.1864 23.6384C63.1864 23.9548 62.9153 24.226 62.5989 24.226H51.5706Z" fill="current"/>
</g>
<defs>
<clipPath id="clip0_603_1232">
<rect width="90.3503" height="80" fill="white"/>
</clipPath>
</defs>
</svg>
